<!DOCTYPE svg PUBLIC "-//W3C//DTD SVG 20010904//EN" "http://www.w3.org/TR/2001/REC-SVG-20010904/DTD/svg10.dtd">
<svg version="1.0" xmlns="http://www.w3.org/2000/svg" width="1500px" height="939px" viewBox="0 0 12000 7510" preserveAspectRatio="xMidYMid meet">
<g id="layer101" fill="#000000" stroke="none">
 <path d="M0 3755 l0 -3755 6000 0 6000 0 0 3755 0 3755 -6000 0 -6000 0 0 -3755z"/>
 </g>
<g id="layer102" fill="#fefefe" stroke="none">
 <path d="M5709 5940 c-79 -10 -201 -59 -264 -106 -64 -49 -216 -223 -287 -328 -121 -179 -153 -282 -182 -587 -21 -222 -21 -362 0 -383 8 -9 19 -16 23 -16 20 0 113 70 171 129 96 97 120 156 160 397 23 136 46 212 84 272 93 148 251 204 576 204 317 1 471 -51 558 -186 37 -58 102 -252 102 -306 1 -121 59 -274 134 -353 45 -46 153 -107 192 -107 20 0 23 6 29 64 13 116 -27 552 -61 665 -28 94 -134 249 -285 418 -108 120 -169 169 -226 181 -83 18 -203 32 -368 42 -178 11 -259 11 -356 0z"/>
 <path d="M5951 5461 c-42 -42 -55 -157 -21 -191 27 -27 100 -28 125 0 29 32 6 137 -43 193 -20 22 -37 22 -61 -2z"/>
 <path d="M5751 5414 c-38 -49 -21 -155 26 -162 33 -5 57 40 57 103 0 83 -41 112 -83 59z"/>
 <path d="M6221 5416 c-19 -23 -25 -83 -11 -116 15 -36 37 -50 78 -50 34 0 49 15 58 57 15 74 -83 159 -125 109z"/>
 <path d="M5566 5379 c-30 -24 -35 -72 -10 -107 20 -29 60 -29 75 0 15 29 15 94 -1 113 -17 20 -32 19 -64 -6z"/>
 <path d="M5541 4983 c-28 -34 -35 -64 -28 -116 7 -48 43 -87 81 -87 54 0 68 158 19 212 -23 25 -48 22 -72 -9z"/>
 <path d="M5730 4943 c0 -45 7 -82 20 -111 24 -53 47 -63 72 -32 16 19 18 37 16 114 l-3 91 -52 3 -53 3 0 -68z"/>
 <path d="M6111 4986 c-9 -15 -12 -41 -8 -66 7 -53 48 -134 70 -138 28 -6 57 55 57 118 0 79 -16 104 -66 108 -34 3 -42 -1 -53 -22z"/>
 <path d="M5946 4993 l-28 -5 4 -79 c5 -91 20 -116 62 -105 38 9 66 61 66 122 0 72 -13 80 -104 67z"/>
 <path d="M6327 4972 c-12 -13 -17 -37 -17 -83 0 -102 41 -138 95 -84 21 20 25 34 25 82 0 70 -19 103 -59 103 -15 0 -35 -8 -44 -18z"/>
 <path d="M5760 4730 c-209 -12 -317 -63 -412 -195 -84 -116 -152 -164 -338 -240 -227 -93 -365 -177 -414 -252 -51 -77 -53 -191 -4 -239 13 -14 55 -37 94 -53 52 -21 73 -35 84 -57 11 -22 16 -99 21 -339 8 -362 16 -415 88 -583 139 -326 200 -488 217 -577 6 -32 4 -37 -12 -33 -47 9 -205 255 -290 452 -72 167 -84 232 -84 474 0 243 -10 496 -21 513 -14 23 -45 -17 -104 -132 -88 -172 -89 -178 -89 -589 0 -409 4 -431 83 -595 137 -281 409 -546 706 -690 149 -72 199 -90 313 -110 217 -38 703 -43 867 -10 159 33 378 128 525 229 98 66 263 231 327 326 70 105 129 225 157 322 75 260 75 788 1 1035 -22 71 -33 90 -83 142 -32 34 -63 61 -70 61 -6 0 -19 -12 -29 -26 -14 -22 -18 -63 -25 -227 -4 -115 -12 -205 -18 -211 -14 -14 -41 3 -58 37 -21 43 -31 163 -32 372 l0 200 88 24 c48 13 103 32 124 42 117 59 102 179 -41 311 -75 70 -147 112 -284 170 -150 62 -191 93 -367 270 l-165 166 -260 11 c-272 12 -293 12 -495 1z m90 -505 c104 -67 154 -68 248 -3 49 34 62 28 62 -27 0 -92 -64 -395 -110 -518 -38 -100 -62 -88 -135 68 -67 142 -115 303 -142 478 -7 48 5 48 77 2z m-434 -434 c233 -89 388 -306 371 -517 -9 -117 -78 -206 -205 -267 -122 -57 -264 -35 -378 58 -123 101 -195 307 -174 499 16 137 82 237 167 251 21 4 43 8 48 9 26 7 107 -9 171 -33z m1397 -14 c72 -38 154 -125 163 -173 8 -41 -2 -152 -21 -244 -20 -97 -51 -169 -99 -233 -77 -103 -160 -148 -276 -148 -99 0 -174 30 -258 106 -101 91 -132 187 -95 296 33 98 113 228 189 306 129 133 260 163 397 90z"/>
 </g>

</svg>